<mxfile host="app.diagrams.net" agent="Mozilla/5.0 (Windows NT 10.0; Win64; x64) AppleWebKit/537.36 (KHTML, like Gecko) Chrome/128.0.0.0 Safari/537.36 Edg/128.0.0.0" version="24.7.7">
  <diagram id="6a731a19-8d31-9384-78a2-239565b7b9f0" name="Page-1">
    <mxGraphModel dx="1242" dy="567" grid="1" gridSize="10" guides="1" tooltips="1" connect="1" arrows="1" fold="1" page="1" pageScale="1" pageWidth="1169" pageHeight="827" background="none" math="0" shadow="0">
      <root>
        <mxCell id="0" />
        <mxCell id="1" parent="0" />
        <mxCell id="PB3pNNl-o7UNLz1E6hY7-55" style="edgeStyle=orthogonalEdgeStyle;rounded=0;orthogonalLoop=1;jettySize=auto;html=1;exitX=1;exitY=0.5;exitDx=0;exitDy=0;entryX=0;entryY=0.5;entryDx=0;entryDy=0;" edge="1" parent="1" source="PB3pNNl-o7UNLz1E6hY7-56" target="PB3pNNl-o7UNLz1E6hY7-58">
          <mxGeometry relative="1" as="geometry" />
        </mxCell>
        <mxCell id="PB3pNNl-o7UNLz1E6hY7-56" value="查看评论列表" style="rounded=1;whiteSpace=wrap;html=1;" vertex="1" parent="1">
          <mxGeometry x="160" y="130" width="120" height="60" as="geometry" />
        </mxCell>
        <mxCell id="PB3pNNl-o7UNLz1E6hY7-57" style="edgeStyle=orthogonalEdgeStyle;rounded=0;orthogonalLoop=1;jettySize=auto;html=1;exitX=1;exitY=0.5;exitDx=0;exitDy=0;entryX=0;entryY=0.5;entryDx=0;entryDy=0;" edge="1" parent="1" source="PB3pNNl-o7UNLz1E6hY7-58" target="PB3pNNl-o7UNLz1E6hY7-60">
          <mxGeometry relative="1" as="geometry" />
        </mxCell>
        <mxCell id="PB3pNNl-o7UNLz1E6hY7-58" value="预览评论内容" style="rounded=1;whiteSpace=wrap;html=1;" vertex="1" parent="1">
          <mxGeometry x="310" y="130" width="120" height="60" as="geometry" />
        </mxCell>
        <mxCell id="PB3pNNl-o7UNLz1E6hY7-59" style="edgeStyle=orthogonalEdgeStyle;rounded=0;orthogonalLoop=1;jettySize=auto;html=1;exitX=1;exitY=0.5;exitDx=0;exitDy=0;entryX=0;entryY=0.5;entryDx=0;entryDy=0;" edge="1" parent="1" source="PB3pNNl-o7UNLz1E6hY7-60" target="PB3pNNl-o7UNLz1E6hY7-62">
          <mxGeometry relative="1" as="geometry" />
        </mxCell>
        <mxCell id="PB3pNNl-o7UNLz1E6hY7-60" value="查看用户信息" style="rounded=1;whiteSpace=wrap;html=1;" vertex="1" parent="1">
          <mxGeometry x="470" y="130" width="120" height="60" as="geometry" />
        </mxCell>
        <mxCell id="PB3pNNl-o7UNLz1E6hY7-61" style="edgeStyle=orthogonalEdgeStyle;rounded=0;orthogonalLoop=1;jettySize=auto;html=1;exitX=1;exitY=0.5;exitDx=0;exitDy=0;entryX=0;entryY=0.5;entryDx=0;entryDy=0;" edge="1" parent="1" source="PB3pNNl-o7UNLz1E6hY7-62" target="PB3pNNl-o7UNLz1E6hY7-65">
          <mxGeometry relative="1" as="geometry" />
        </mxCell>
        <mxCell id="PB3pNNl-o7UNLz1E6hY7-62" value="删除不当评论" style="rounded=1;whiteSpace=wrap;html=1;" vertex="1" parent="1">
          <mxGeometry x="630" y="130" width="120" height="60" as="geometry" />
        </mxCell>
        <mxCell id="PB3pNNl-o7UNLz1E6hY7-63" style="edgeStyle=orthogonalEdgeStyle;rounded=0;orthogonalLoop=1;jettySize=auto;html=1;exitX=1;exitY=0.5;exitDx=0;exitDy=0;entryX=0;entryY=0.5;entryDx=0;entryDy=0;" edge="1" parent="1" source="PB3pNNl-o7UNLz1E6hY7-64" target="PB3pNNl-o7UNLz1E6hY7-56">
          <mxGeometry relative="1" as="geometry" />
        </mxCell>
        <mxCell id="PB3pNNl-o7UNLz1E6hY7-64" value="开始" style="ellipse;whiteSpace=wrap;html=1;" vertex="1" parent="1">
          <mxGeometry x="20" y="132.5" width="100" height="55" as="geometry" />
        </mxCell>
        <mxCell id="PB3pNNl-o7UNLz1E6hY7-65" value="结束" style="ellipse;whiteSpace=wrap;html=1;" vertex="1" parent="1">
          <mxGeometry x="790" y="132.5" width="100" height="55" as="geometry" />
        </mxCell>
      </root>
    </mxGraphModel>
  </diagram>
</mxfile>
